name Walk3.mot
datacolumns 19
datarows 30
range 2.49000000 2.63500000
endheader

                time	   L_ground_force_vx	   L_ground_force_vy	   L_ground_force_vz	   L_ground_force_px	   L_ground_force_py	   L_ground_force_pz	   R_ground_force_vx	   R_ground_force_vy	   R_ground_force_vz	   R_ground_force_px	   R_ground_force_py	   R_ground_force_pz	   L_ground_torque_x	   L_ground_torque_y	   L_ground_torque_z	   R_ground_torque_x	   R_ground_torque_y	   R_ground_torque_z	
          2.49000000	          0.00000000	          0.00000000	         -0.00000000	         -0.00000000	          0.00000000	          0.00000000	          0.07962406	          2.91410513	          0.31564404	          0.08142113	          0.00000000	          0.02745909	          0.00000000	          0.00000000	          0.00000000	          0.00000000	          0.00815241	          0.00000000	
          2.49500000	          0.00000000	          0.00000000	         -0.00000000	         -0.00000000	          0.00000000	         -0.00000000	         -0.08055752	         -0.92283641	         -0.03629509	         -0.00285516	          0.00000000	         -0.00081379	          0.00000000	          0.00000000	          0.00000000	          0.00000000	         -0.00132488	          0.00000000	
          2.50000000	          0.00000000	          0.00000000	         -0.00000000	         -0.00000000	          0.00000000	         -0.00000000	         -0.03132439	         -0.57607870	         -0.04447172	         -0.00963921	          0.00000000	         -0.00320882	          0.00000000	          0.00000000	          0.00000000	          0.00000000	         -0.00125771	          0.00000000	
          2.50500000	         -0.00000000	         -0.00000000	          0.00000000	          0.00000000	          0.00000000	          0.00000000	         -0.00007911	         -0.06207830	         -0.00858430	         -0.00240448	          0.00000000	         -0.00081526	          0.00000000	         -0.00000000	          0.00000000	          0.00000000	         -0.00021039	          0.00000000	
          2.51000000	         -0.00000000	         -0.00000000	          0.00000000	          0.00000000	          0.00000000	          0.00000000	          0.00337682	          0.04503127	          0.00240850	          0.00036890	          0.00000000	          0.00011863	          0.00000000	         -0.00000000	          0.00000000	          0.00000000	          0.00007723	          0.00000000	
          2.51500000	         -0.00000000	         -0.00000000	          0.00000000	          0.00000000	          0.00000000	          0.00000000	          0.00095946	          0.01941662	          0.00160971	          0.00036480	          0.00000000	          0.00012187	          0.00000000	         -0.00000000	          0.00000000	          0.00000000	          0.00004458	          0.00000000	
          2.52000000	          0.00000000	          0.00000000	         -0.00000000	         -0.00000000	          0.00000000	         -0.00000000	         -0.00009625	          0.00058105	          0.00019193	          0.00006269	          0.00000000	          0.00002144	          0.00000000	          0.00000000	          0.00000000	          0.00000000	          0.00000417	          0.00000000	
          2.52500000	          0.00000000	          0.00000000	         -0.00000000	         -0.00000000	          0.00000000	         -0.00000000	         -0.00013122	         -0.00194333	         -0.00012063	         -0.00002193	          0.00000000	         -0.00000719	          0.00000000	          0.00000000	          0.00000000	          0.00000000	         -0.00000366	          0.00000000	
          2.53000000	         -0.00000000	         -0.00000000	          0.00000000	         -0.00000000	          0.00000000	         -0.00000000	         -0.00002650	         -0.00061027	         -0.00005479	         -0.00001298	          0.00000000	         -0.00000435	          0.00000000	          0.00000000	          0.00000000	          0.00000000	         -0.00000148	          0.00000000	
          2.53500000	         -0.00000000	         -0.00000000	          0.00000000	          0.00000000	          0.00000000	          0.00000000	          0.00000678	          0.00003903	         -0.00000234	         -0.00000127	          0.00000000	         -0.00000045	          0.00000000	         -0.00000000	          0.00000000	          0.00000000	         -0.00000002	          0.00000000	
          2.54000000	         -0.00000000	         -0.00000000	          0.00000000	          0.00000000	          0.00000000	          0.00000000	          0.00000478	          0.00007721	          0.00000529	          0.00000105	          0.00000000	          0.00000035	          0.00000000	         -0.00000000	          0.00000000	          0.00000000	          0.00000016	          0.00000000	
          2.54500000	          0.00000000	          0.00000000	         -0.00000000	          0.00000000	          0.00000000	          0.00000000	          0.00000061	          0.00001751	          0.00000174	          0.00000043	          0.00000000	          0.00000015	          0.00000000	          0.00000000	          0.00000000	          0.00000000	          0.00000005	          0.00000000	
          2.55000000	          0.00000000	          0.00000000	         -0.00000000	         -0.00000000	          0.00000000	         -0.00000000	         -0.00000035	         -0.00000345	         -0.00000008	          0.00000001	          0.00000000	          0.00000000	          0.00000000	          0.00000000	          0.00000000	          0.00000000	         -0.00000000	          0.00000000	
          2.55500000	          0.00000000	          0.00000000	         -0.00000000	         -0.00000000	          0.00000000	         -0.00000000	         -0.00000016	         -0.00000287	         -0.00000021	         -0.00000004	          0.00000000	         -0.00000001	          0.00000000	          0.00000000	          0.00000000	          0.00000000	         -0.00000001	          0.00000000	
          2.56000000	         -0.00000000	         -0.00000000	          0.00000000	          0.00000000	          0.00000000	          0.00000000	         -0.00000001	         -0.00000043	         -0.00000005	         -0.00000001	          0.00000000	         -0.00000000	          0.00000000	         -0.00000000	          0.00000000	          0.00000000	         -0.00000000	          0.00000000	
          2.56500000	         -0.00000000	         -0.00000000	          0.00000000	          0.00000000	          0.00000000	          0.00000000	          0.00000002	          0.00000019	          0.00000001	          0.00000000	          0.00000000	          0.00000000	          0.00000000	         -0.00000000	          0.00000000	          0.00000000	          0.00000000	          0.00000000	
          2.57000000	         -0.00000000	         -0.00000000	          0.00000000	          0.00000000	          0.00000000	          0.00000000	          0.00000001	          0.00000010	          0.00000001	          0.00000000	          0.00000000	          0.00000000	          0.00000000	         -0.00000000	          0.00000000	          0.00000000	          0.00000000	          0.00000000	
          2.57500000	          0.00000000	          0.00000000	         -0.00000000	         -0.00000000	          0.00000000	         -0.00000000	         -0.00000000	          0.00000001	          0.00000000	          0.00000000	          0.00000000	          0.00000000	          0.00000000	          0.00000000	          0.00000000	          0.00000000	          0.00000000	          0.00000000	
          2.58000000	          0.00000000	          0.00000000	         -0.00000000	         -0.00000000	          0.00000000	         -0.00000000	         -0.00000000	         -0.00000001	         -0.00000000	         -0.00000000	          0.00000000	         -0.00000000	          0.00000000	          0.00000000	          0.00000000	          0.00000000	         -0.00000000	          0.00000000	
          2.58500000	          0.00000000	          0.00000000	         -0.00000000	         -0.00000000	          0.00000000	         -0.00000000	         -0.00000000	         -0.00000000	         -0.00000000	         -0.00000000	          0.00000000	         -0.00000000	          0.00000000	          0.00000000	          0.00000000	          0.00000000	         -0.00000000	          0.00000000	
          2.59000000	         -0.00000000	         -0.00000000	          0.00000000	          0.00000000	          0.00000000	          0.00000000	          0.00000000	          0.00000000	         -0.00000000	         -0.00000000	          0.00000000	         -0.00000000	          0.00000000	         -0.00000000	          0.00000000	          0.00000000	         -0.00000000	          0.00000000	
          2.59500000	         -0.00000000	         -0.00000000	          0.00000000	          0.00000000	          0.00000000	          0.00000000	          0.00000000	          0.00000000	          0.00000000	          0.00000000	          0.00000000	          0.00000000	          0.00000000	         -0.00000000	          0.00000000	          0.00000000	          0.00000000	          0.00000000	
          2.60000000	          0.00000000	          0.00000000	         -0.00000000	          0.00000000	          0.00000000	          0.00000000	          0.00000000	          0.00000000	          0.00000000	          0.00000000	          0.00000000	          0.00000000	          0.00000000	          0.00000000	          0.00000000	          0.00000000	          0.00000000	          0.00000000	
          2.60500000	          0.00000000	          0.00000000	         -0.00000000	         -0.00000000	          0.00000000	         -0.00000000	         -0.00000000	         -0.00000000	          0.00000000	          0.00000000	          0.00000000	          0.00000000	          0.00000000	          0.00000000	          0.00000000	          0.00000000	         -0.00000000	          0.00000000	
          2.61000000	          0.00000000	          0.00000000	         -0.00000000	         -0.00000000	          0.00000000	         -0.00000000	         -0.00000000	         -0.00000000	         -0.00000000	         -0.00000000	          0.00000000	         -0.00000000	          0.00000000	          0.00000000	          0.00000000	          0.00000000	         -0.00000000	          0.00000000	
          2.61500000	         -0.00000000	         -0.00000000	          0.00000000	         -0.00000000	          0.00000000	         -0.00000000	         -0.00000000	         -0.00000000	         -0.00000000	         -0.00000000	          0.00000000	         -0.00000000	          0.00000000	         -0.00000000	          0.00000000	          0.00000000	         -0.00000000	          0.00000000	
          2.62000000	         -0.00000000	         -0.00000000	          0.00000000	          0.00000000	          0.00000000	          0.00000000	          0.00000000	          0.00000000	          0.00000000	          0.00000000	          0.00000000	          0.00000000	          0.00000000	         -0.00000000	          0.00000000	          0.00000000	          0.00000000	          0.00000000	
          2.62500000	         -0.00000000	         -0.00000000	          0.00000000	          0.00000000	          0.00000000	          0.00000000	          0.00000000	          0.00000000	          0.00000000	          0.00000000	          0.00000000	          0.00000000	          0.00000000	         -0.00000000	          0.00000000	          0.00000000	          0.00000000	          0.00000000	
          2.63000000	          0.00000000	          0.00000000	         -0.00000000	         -0.00000000	          0.00000000	         -0.00000000	          0.00000000	          0.00000000	          0.00000000	          0.00000000	          0.00000000	          0.00000000	          0.00000000	          0.00000000	          0.00000000	          0.00000000	          0.00000000	          0.00000000	
          2.63500000	          0.00000000	          0.00000000	         -0.00000000	         -0.00000000	          0.00000000	         -0.00000000	         -0.00000000	         -0.00000000	         -0.00000000	         -0.00000000	          0.00000000	         -0.00000000	          0.00000000	          0.00000000	          0.00000000	          0.00000000	         -0.00000000	          0.00000000	
